<!-- 人物4：男性内容创作者 -->
<svg xmlns="http://www.w3.org/2000/svg" viewBox="0 0 200 280" width="200" height="280">
  <defs>
    <linearGradient id="skinGrad4" x1="0%" y1="0%" x2="0%" y2="100%">
      <stop offset="0%" style="stop-color:#e8cfc0"/>
      <stop offset="100%" style="stop-color:#d4b8a8"/>
    </linearGradient>
    <linearGradient id="hairGrad4" x1="0%" y1="0%" x2="0%" y2="100%">
      <stop offset="0%" style="stop-color:#3d2314"/>
      <stop offset="100%" style="stop-color:#2a180a"/>
    </linearGradient>
  </defs>
  
  <!-- 身体 - 休闲装 -->
  <path d="M40 280 Q40 180 100 170 Q160 180 160 280" fill="#22c55e"/>
  
  <!-- T恤图案 -->
  <text x="100" y="220" font-size="20" fill="#fff" text-anchor="middle" font-weight="bold">AI</text>
  
  <!-- 脖子 -->
  <rect x="88" y="145" width="24" height="30" fill="url(#skinGrad4)"/>
  
  <!-- 头发 - 略长凌乱 -->
  <ellipse cx="100" cy="75" rx="52" ry="52" fill="url(#hairGrad4)"/>
  
  <!-- 脸 -->
  <ellipse cx="100" cy="88" rx="46" ry="50" fill="url(#skinGrad4)"/>
  
  <!-- 凌乱发型 -->
  <path d="M48 60 Q55 35 100 30 Q145 35 152 60 Q145 40 100 35 Q55 40 48 60" fill="url(#hairGrad4)"/>
  <path d="M55 55 Q50 45 55 38" stroke="url(#hairGrad4)" stroke-width="6" fill="none"/>
  <path d="M145 55 Q150 45 145 38" stroke="url(#hairGrad4)" stroke-width="6" fill="none"/>
  <path d="M70 38 Q75 30 80 35" stroke="url(#hairGrad4)" stroke-width="5" fill="none"/>
  <path d="M130 38 Q125 30 120 35" stroke="url(#hairGrad4)" stroke-width="5" fill="none"/>
  
  <!-- 眼镜 -->
  <rect x="55" y="80" width="35" height="22" rx="5" fill="none" stroke="#374151" stroke-width="2.5"/>
  <rect x="110" y="80" width="35" height="22" rx="5" fill="none" stroke="#374151" stroke-width="2.5"/>
  <line x1="90" y1="90" x2="110" y2="90" stroke="#374151" stroke-width="2.5"/>
  <line x1="55" y1="88" x2="48" y2="85" stroke="#374151" stroke-width="2"/>
  <line x1="145" y1="88" x2="152" y2="85" stroke="#374151" stroke-width="2"/>
  
  <!-- 眉毛 -->
  <path d="M60 76 Q72 73 85 76" stroke="#3d2314" stroke-width="2.5" fill="none"/>
  <path d="M115 76 Q128 73 140 76" stroke="#3d2314" stroke-width="2.5" fill="none"/>
  
  <!-- 眼睛 -->
  <ellipse cx="72" cy="90" rx="6" ry="5" fill="#fff"/>
  <ellipse cx="128" cy="90" rx="6" ry="5" fill="#fff"/>
  <circle cx="73" cy="90" r="3" fill="#3d2314"/>
  <circle cx="129" cy="90" r="3" fill="#3d2314"/>
  <circle cx="74" cy="89" r="1" fill="#fff"/>
  <circle cx="130" cy="89" r="1" fill="#fff"/>
  
  <!-- 鼻子 -->
  <path d="M100 95 L98 108 L104 108" stroke="#c4a08a" stroke-width="2" fill="none"/>
  
  <!-- 嘴巴 - 思考中 -->
  <path d="M90 120 Q100 118 110 120" stroke="#c47878" stroke-width="2" fill="none"/>
  
  <!-- 胡渣 -->
  <ellipse cx="100" cy="125" rx="15" ry="5" fill="#3d2314" opacity="0.3"/>
  
  <!-- 手臂 -->
  <path d="M40 200 Q25 230 35 260" stroke="#22c55e" stroke-width="22" fill="none" stroke-linecap="round"/>
  <path d="M160 200 Q175 230 165 260" stroke="#22c55e" stroke-width="22" fill="none" stroke-linecap="round"/>
  
  <!-- 手 -->
  <circle cx="35" cy="265" r="12" fill="url(#skinGrad4)"/>
  <circle cx="165" cy="265" r="12" fill="url(#skinGrad4)"/>
  
  <!-- 笔记本和笔 -->
  <rect x="5" y="225" width="50" height="55" rx="3" fill="#fef3c7"/>
  <line x1="10" y1="235" x2="50" y2="235" stroke="#92400e" stroke-width="1"/>
  <line x1="10" y1="245" x2="50" y2="245" stroke="#92400e" stroke-width="1"/>
  <line x1="10" y1="255" x2="45" y2="255" stroke="#92400e" stroke-width="1"/>
  <line x1="10" y1="265" x2="50" y2="265" stroke="#92400e" stroke-width="1"/>
  <!-- 灯泡创意 -->
  <circle cx="100" cy="25" r="12" fill="#fbbf24" opacity="0.8"/>
  <path d="M95 30 L95 38 L105 38 L105 30" fill="#fbbf24"/>
  <line x1="97" y1="20" x2="97" y2="15" stroke="#fbbf24" stroke-width="2"/>
  <line x1="103" y1="20" x2="103" y2="15" stroke="#fbbf24" stroke-width="2"/>
  <line x1="100" y1="18" x2="100" y2="10" stroke="#fbbf24" stroke-width="2"/>
  <path d="M88 25 L83 23" stroke="#fbbf24" stroke-width="2"/>
  <path d="M112 25 L117 23" stroke="#fbbf24" stroke-width="2"/>
</svg>